<svg width="143" height="136" viewBox="0 0 143 136" fill="none" xmlns="http://www.w3.org/2000/svg">
<path d="M18.0625 64.3906C13.075 64.3906 8.85937 62.6687 5.41562 59.225C1.97187 55.7812 0.25 51.5656 0.25 46.5781C0.25 41.5906 1.97187 37.375 5.41562 33.9312C8.85937 30.4875 13.075 28.7656 18.0625 28.7656C23.05 28.7656 27.2656 30.4875 30.7094 33.9312C34.1531 37.375 35.875 41.5906 35.875 46.5781C35.875 51.5656 34.1531 55.7812 30.7094 59.225C27.2656 62.6687 23.05 64.3906 18.0625 64.3906ZM50.125 35.8906C45.1375 35.8906 40.9219 34.1688 37.4781 30.725C34.0344 27.2812 32.3125 23.0656 32.3125 18.0781C32.3125 13.0906 34.0344 8.875 37.4781 5.43125C40.9219 1.9875 45.1375 0.265625 50.125 0.265625C55.1125 0.265625 59.3281 1.9875 62.7719 5.43125C66.2156 8.875 67.9375 13.0906 67.9375 18.0781C67.9375 23.0656 66.2156 27.2812 62.7719 30.725C59.3281 34.1688 55.1125 35.8906 50.125 35.8906ZM92.875 35.8906C87.8875 35.8906 83.6719 34.1688 80.2281 30.725C76.7844 27.2812 75.0625 23.0656 75.0625 18.0781C75.0625 13.0906 76.7844 8.875 80.2281 5.43125C83.6719 1.9875 87.8875 0.265625 92.875 0.265625C97.8625 0.265625 102.078 1.9875 105.522 5.43125C108.966 8.875 110.688 13.0906 110.688 18.0781C110.688 23.0656 108.966 27.2812 105.522 30.725C102.078 34.1688 97.8625 35.8906 92.875 35.8906ZM124.938 64.3906C119.95 64.3906 115.734 62.6687 112.291 59.225C108.847 55.7812 107.125 51.5656 107.125 46.5781C107.125 41.5906 108.847 37.375 112.291 33.9312C115.734 30.4875 119.95 28.7656 124.938 28.7656C129.925 28.7656 134.141 30.4875 137.584 33.9312C141.028 37.375 142.75 41.5906 142.75 46.5781C142.75 51.5656 141.028 55.7812 137.584 59.225C134.141 62.6687 129.925 64.3906 124.938 64.3906ZM33.3813 135.641C28.0375 135.641 23.5559 133.591 19.9364 129.492C16.3121 125.397 14.5 120.559 14.5 114.978C14.5 108.803 16.609 103.4 20.827 98.7688C25.0403 94.1375 29.225 89.5656 33.3813 85.0531C36.825 81.3719 39.7938 77.3629 42.2875 73.0261C44.7812 68.6941 47.75 64.6281 51.1937 60.8281C53.8062 57.7406 56.8344 55.1875 60.2781 53.1688C63.7219 51.15 67.4625 50.1406 71.5 50.1406C75.5375 50.1406 79.2781 51.0906 82.7219 52.9906C86.1656 54.8906 89.1938 57.3844 91.8063 60.4719C95.1313 64.2719 98.0691 68.3688 100.62 72.7625C103.175 77.1562 106.175 81.2531 109.619 85.0531C113.775 89.5656 117.962 94.1375 122.18 98.7688C126.393 103.4 128.5 108.803 128.5 114.978C128.5 120.559 126.69 125.397 123.071 129.492C119.447 133.591 114.963 135.641 109.619 135.641C103.206 135.641 96.8531 135.106 90.5594 134.037C84.2656 132.969 77.9125 132.434 71.5 132.434C65.0875 132.434 58.7344 132.969 52.4406 134.037C46.1469 135.106 39.7938 135.641 33.3813 135.641Z" fill="#1C1B1F"/>
</svg>
