<svg width="171" height="171" viewBox="0 0 171 171" fill="none" xmlns="http://www.w3.org/2000/svg">
<path d="M69.9545 157.846L81.6136 111.808L69.9545 98.6538L54.4091 92.0769L69.9545 157.846ZM101.045 157.846L116.591 92.0769L101.045 98.6538L89.3864 111.808L101.045 157.846ZM120.477 54.0541C120.315 53.78 120.153 53.5745 119.991 53.4375C119.182 52.8894 115.295 52.6154 108.332 52.6154C102.665 52.6154 95.9041 53.2662 88.0504 54.5679C87.4837 54.7049 86.6335 54.7734 85.5 54.7734C84.3665 54.7734 83.5163 54.7049 82.9496 54.5679C75.0959 53.2662 68.3352 52.6154 62.6676 52.6154C55.7045 52.6154 51.8182 52.8894 51.0085 53.4375C50.8466 53.5745 50.6847 53.78 50.5227 54.0541C50.6847 55.2873 50.8466 56.2121 51.0085 56.8287C51.1705 57.0343 51.4741 57.2569 51.9194 57.4967C52.3647 57.7365 52.6683 58.0962 52.8303 58.5757C52.9922 58.8498 53.2958 59.552 53.7411 60.6824C54.1864 61.8128 54.4698 62.515 54.5913 62.7891C54.7127 63.0631 55.0163 63.6454 55.5021 64.5361C55.9879 65.4267 56.332 66.009 56.5344 66.2831C56.7369 66.5571 57.1012 67.0367 57.6275 67.7218C58.1538 68.4069 58.6396 68.8693 59.0849 69.1091C59.5302 69.3489 60.0969 69.6743 60.7852 70.0853C61.4734 70.4964 62.1818 70.7704 62.9105 70.9074C63.6392 71.0445 64.4691 71.1815 65.4002 71.3185C66.3313 71.4555 67.3232 71.524 68.3757 71.524C71.2905 71.524 73.679 71.0958 75.5412 70.2395C77.4034 69.3831 78.7191 68.3555 79.4883 67.1565C80.2575 65.9576 80.8445 64.7758 81.2493 63.6112C81.6541 62.4465 82.1197 61.436 82.646 60.5796C83.1722 59.7233 83.8807 59.2951 84.7713 59.2951H86.2287C87.1193 59.2951 87.8278 59.7233 88.354 60.5796C88.8803 61.436 89.3459 62.4465 89.7507 63.6112C90.1555 64.7758 90.7425 65.9576 91.5117 67.1565C92.2809 68.3555 93.5966 69.3831 95.4588 70.2395C97.321 71.0958 99.7095 71.524 102.624 71.524C103.677 71.524 104.669 71.4555 105.6 71.3185C106.531 71.1815 107.361 71.0445 108.089 70.9074C108.818 70.7704 109.527 70.4964 110.215 70.0853C110.903 69.6743 111.47 69.3489 111.915 69.1091C112.36 68.8693 112.846 68.4069 113.373 67.7218C113.899 67.0367 114.263 66.5571 114.466 66.2831C114.668 66.009 115.012 65.4267 115.498 64.5361C115.984 63.6454 116.287 63.0631 116.409 62.7891C116.53 62.515 116.814 61.8128 117.259 60.6824C117.704 59.552 118.008 58.8498 118.17 58.5757C118.332 58.0962 118.635 57.7365 119.081 57.4967C119.526 57.2569 119.83 57.0343 119.991 56.8287C120.153 56.2121 120.315 55.2873 120.477 54.0541ZM171 144.384C171 152.674 168.045 159.182 162.134 163.909C156.224 168.636 148.37 171 138.573 171H32.4268C22.63 171 14.7763 168.636 8.86577 163.909C2.95526 159.182 0 152.674 0 144.384C0 140.205 0.182173 136.163 0.54652 132.258C0.910866 128.353 1.68004 124.054 2.85405 119.361C4.02805 114.668 5.54616 110.438 7.40838 106.669C9.2706 102.901 11.8413 99.3561 15.1204 96.0333C18.3995 92.7106 22.1847 90.1587 26.4759 88.3774L15.5455 65.7692H41.5355C39.7543 61.3846 38.8636 57 38.8636 52.6154C38.8636 51.7933 38.9446 50.6971 39.1065 49.3269C23.3991 46.5865 15.5455 43.2981 15.5455 39.4615C15.5455 35.5565 24.0469 32.1653 41.0497 29.2879C42.4261 25.0403 44.511 20.4501 47.3043 15.5174C50.0977 10.5847 52.9517 6.67969 55.8665 3.80228C58.4574 1.26743 61.5341 0 65.0966 0C67.5256 0 70.9261 1.0619 75.2983 3.1857C79.6705 5.30949 83.071 6.37139 85.5 6.37139C87.929 6.37139 91.3296 5.30949 95.7017 3.1857C100.074 1.0619 103.474 0 105.903 0C109.466 0 112.543 1.26743 115.134 3.80228C118.048 6.67969 120.902 10.5847 123.696 15.5174C126.489 20.4501 128.574 25.0403 129.95 29.2879C146.953 32.1653 155.455 35.5565 155.455 39.4615C155.455 43.2981 147.601 46.5865 131.893 49.3269C132.46 54.8762 131.651 60.357 129.464 65.7692H155.455L145.496 88.8912C150.597 91.152 154.949 94.4576 158.551 98.808C162.154 103.158 164.806 108.074 166.506 113.555C168.207 119.035 169.381 124.225 170.028 129.123C170.676 134.022 171 139.109 171 144.384Z" fill="black"/>
</svg>
