<svg width="171" height="171" viewBox="0 0 171 171" fill="none" xmlns="http://www.w3.org/2000/svg">
<path d="M90.1565 1.79409C89.5455 1.22539 88.8197 0.774186 88.0207 0.466327C87.2217 0.158468 86.3651 0 85.5 0C84.6349 0 83.7783 0.158468 82.9793 0.466327C82.1802 0.774186 81.4545 1.22539 80.8435 1.79409L1.92047 75.0751C1.31011 75.6433 0.826336 76.3176 0.49681 77.0594C0.167284 77.8013 -0.00153308 78.5962 1.04901e-05 79.3987V164.893C1.04901e-05 166.513 0.692934 168.066 1.92635 169.211C3.15976 170.357 4.83262 171 6.57693 171H65.7692C67.5135 171 69.1864 170.357 70.4198 169.211C71.6532 168.066 72.3462 166.513 72.3462 164.893V116.039H98.6538V164.893C98.6538 166.513 99.3468 168.066 100.58 169.211C101.814 170.357 103.486 171 105.231 171H164.423C166.167 171 167.84 170.357 169.074 169.211C170.307 168.066 171 166.513 171 164.893V79.3987C171.002 78.5962 170.833 77.8013 170.503 77.0594C170.174 76.3176 169.69 75.6433 169.08 75.0751L151.269 58.5503V18.3312C151.269 16.7116 150.576 15.1583 149.343 14.0131C148.109 12.8678 146.437 12.2244 144.692 12.2244H131.538C129.794 12.2244 128.121 12.8678 126.888 14.0131C125.654 15.1583 124.962 16.7116 124.962 18.3312V34.1232L90.1565 1.79409ZM13.1539 158.786V81.9269L85.5 14.7526L157.846 81.9269V158.786H111.808V109.932C111.808 108.313 111.115 106.76 109.881 105.614C108.648 104.469 106.975 103.826 105.231 103.826H65.7692C64.0249 103.826 62.3521 104.469 61.1186 105.614C59.8852 106.76 59.1923 108.313 59.1923 109.932V158.786H13.1539Z" fill="black"/>
</svg>
